<?xml version="1.0" encoding="UTF-8"?>
<svg xmlns="http://www.w3.org/2000/svg" viewBox="0 0 128 128" width="128" height="128" shape-rendering="crispEdges" role="img" aria-labelledby="title desc" data-creature-id="M037" data-stage="Ultimate" data-type="Toxic">
  <title id="title">Toximander sprite</title>
  <desc id="desc">Original Ultimate Toxic pixel creature for Pixel Evolution Arena.</desc>
  <style><![CDATA[
    * { shape-rendering: crispEdges; }
    .idle { transform-box: fill-box; transform-origin: center bottom; animation: bob 2.32s steps(2, end) infinite; }
    .eyes { transform-box: fill-box; transform-origin: center; animation: blink 4.4s steps(1, end) infinite; }
    .glow { animation: glow 2.2s steps(2, end) infinite; }
    .scan { transform-box: fill-box; animation: scan 3.1s linear infinite; }
    .wing { transform-box: fill-box; transform-origin: center; animation: flap 1.6s ease-in-out infinite; }
    .wr { transform-origin: left center; }
    .wl { transform-origin: right center; }
    .flame { transform-box: fill-box; transform-origin: center bottom; animation: flick 0.5s steps(2, end) infinite; }
    .ember { animation: glow 0.9s steps(2, end) infinite; }
    .halo { animation: glow 2.6s ease-in-out infinite; }
    .drip { transform-box: fill-box; animation: drip 2.4s ease-in infinite; }
    .bob-leaf { transform-box: fill-box; transform-origin: center bottom; animation: sway 3.4s ease-in-out infinite; }
    @keyframes bob { 0%, 100% { transform: translateY(0); } 50% { transform: translateY(-3px); } }
    @keyframes blink { 0%, 46%, 54%, 100% { transform: scaleY(1); } 50% { transform: scaleY(0.12); } }
    @keyframes glow { 0%, 100% { opacity: 0.5; } 50% { opacity: 1; } }
    @keyframes scan { 0% { transform: translateY(0); opacity: 0.05; } 50% { opacity: 0.35; } 100% { transform: translateY(47px); opacity: 0.05; } }
    @keyframes flap { 0%, 100% { transform: scaleX(1); } 50% { transform: scaleX(0.7); } }
    @keyframes flick { 0%, 100% { transform: scaleY(1); } 50% { transform: scaleY(1.18) translateY(-2px); } }
    @keyframes drip { 0%, 60% { transform: translateY(0); opacity: 0.9; } 90% { transform: translateY(6px); opacity: 0; } 100% { opacity: 0; } }
    @keyframes sway { 0%, 100% { transform: rotate(-4deg); } 50% { transform: rotate(4deg); } }
    @media (prefers-reduced-motion: reduce) { .idle, .eyes, .glow, .scan, .wing, .flame, .ember, .halo, .drip, .bob-leaf { animation: none; } }
  ]]></style>
  <rect width="128" height="128" fill="none"/>
  <g class="idle" stroke="#0c1a05" stroke-width="0">
    <rect x="32" y="37" width="64" height="81" rx="6" fill="#c084fc" class="glow" opacity="0.07"/>
    <polygon class="wing wl" points="50,62.18 16,56.18 22,97.88 52,83.6" fill="#3a2266"/>
    <polygon class="wing wl" points="48,65.18 21,64.18 25,87.17 50,80.03" fill="#9ad42a" opacity="0.85"/>
    <polygon class="wing wr" points="78,62.18 112,56.18 106,97.88 76,83.6" fill="#3a2266"/>
    <polygon class="wing wr" points="80,65.18 107,64.18 103,87.17 78,80.03" fill="#9ad42a" opacity="0.85"/>
    <rect x="44" y="114" width="40" height="6" rx="3" fill="#000000" opacity="0.24"/>
    <polygon points="53,53 75,53 82,60 82,97 75,104 53,104 46,97 46,60" fill="#3a2266"/>
    <polygon points="55,56 73,56 79,62 79,95 73,101 55,101 49,95 49,62" fill="#9ad42a"/>
    <rect x="54.4" y="59" width="13.5" height="9.9" rx="2" fill="#dcff7a" opacity="0.7"/>
    <polygon points="57.5,39 70.5,39 76.5,45 76.5,53 70.5,59 57.5,59 51.5,53 51.5,45" fill="#3a2266"/>
    <polygon points="59,41 69,41 74,46 74,51 69,56 59,56 54,51 54,46" fill="#9ad42a"/>
    <rect x="49" y="105" width="9" height="8" rx="2" fill="#3a2266"/>
    <rect x="70" y="105" width="9" height="8" rx="2" fill="#3a2266"/>
    <rect x="51" y="108" width="3" height="3" fill="#c084fc" class="glow"/>
    <rect x="74" y="108" width="3" height="3" fill="#c084fc" class="glow"/>
    <rect x="41" y="73.4" width="7" height="20.4" rx="2" fill="#3a2266"/>
    <rect x="80" y="73.4" width="7" height="20.4" rx="2" fill="#3a2266"/>
    <polygon points="54,39 58,28 62,39" fill="#c084fc"/>
    <polygon points="66,39 70,26 74,39" fill="#c084fc"/>
    <rect x="70.5" y="55" width="4" height="6" rx="2" fill="#c084fc" class="drip"/>
    <g class="eyes"><rect x="54" y="45" width="7" height="8" rx="1" fill="#0c1a05"/><rect x="67" y="45" width="7" height="8" rx="1" fill="#0c1a05"/><rect x="56" y="47" width="3" height="4" fill="#c084fc" class="glow"/><rect x="69" y="47" width="3" height="4" fill="#c084fc" class="glow"/></g>
    <polygon points="59,56 69,56 67,60 61,60" fill="#0c1a05" opacity="0.85"/>
    <rect x="57.5" y="78.5" width="4" height="8" rx="1" fill="#c084fc" class="glow" opacity="0.8"/>
    <rect x="67.5" y="82.5" width="4" height="8" rx="1" fill="#c084fc" class="glow" opacity="0.8"/>
    <rect class="scan" x="48" y="53" width="32" height="3" fill="#f1ffcf" opacity="0.2"/>
  </g>
</svg>
