<?xml version="1.0" encoding="UTF-8"?>
<svg xmlns="http://www.w3.org/2000/svg" viewBox="0 0 128 128" width="128" height="128" shape-rendering="crispEdges" role="img" aria-labelledby="title desc" data-creature-id="M055" data-stage="Mega" data-type="Dark">
  <title id="title">Nullruler sprite</title>
  <desc id="desc">Original Mega Dark pixel creature for Pixel Evolution Arena.</desc>
  <style><![CDATA[
    * { shape-rendering: crispEdges; }
    .idle { transform-box: fill-box; transform-origin: center bottom; animation: bob 2.20s steps(2, end) infinite; }
    .eyes { transform-box: fill-box; transform-origin: center; animation: blink 5.0s steps(1, end) infinite; }
    .glow { animation: glow 2.2s steps(2, end) infinite; }
    .scan { transform-box: fill-box; animation: scan 3.1s linear infinite; }
    .wing { transform-box: fill-box; transform-origin: center; animation: flap 1.6s ease-in-out infinite; }
    .wr { transform-origin: left center; }
    .wl { transform-origin: right center; }
    .flame { transform-box: fill-box; transform-origin: center bottom; animation: flick 0.5s steps(2, end) infinite; }
    .ember { animation: glow 0.9s steps(2, end) infinite; }
    .halo { animation: glow 2.6s ease-in-out infinite; }
    .drip { transform-box: fill-box; animation: drip 2.4s ease-in infinite; }
    .bob-leaf { transform-box: fill-box; transform-origin: center bottom; animation: sway 3.4s ease-in-out infinite; }
    @keyframes bob { 0%, 100% { transform: translateY(0); } 50% { transform: translateY(-3px); } }
    @keyframes blink { 0%, 46%, 54%, 100% { transform: scaleY(1); } 50% { transform: scaleY(0.12); } }
    @keyframes glow { 0%, 100% { opacity: 0.5; } 50% { opacity: 1; } }
    @keyframes scan { 0% { transform: translateY(0); opacity: 0.05; } 50% { opacity: 0.35; } 100% { transform: translateY(55px); opacity: 0.05; } }
    @keyframes flap { 0%, 100% { transform: scaleX(1); } 50% { transform: scaleX(0.7); } }
    @keyframes flick { 0%, 100% { transform: scaleY(1); } 50% { transform: scaleY(1.18) translateY(-2px); } }
    @keyframes drip { 0%, 60% { transform: translateY(0); opacity: 0.9; } 90% { transform: translateY(6px); opacity: 0; } 100% { opacity: 0; } }
    @keyframes sway { 0%, 100% { transform: rotate(-4deg); } 50% { transform: rotate(4deg); } }
    @media (prefers-reduced-motion: reduce) { .idle, .eyes, .glow, .scan, .wing, .flame, .ember, .halo, .drip, .bob-leaf { animation: none; } }
  ]]></style>
  <rect width="128" height="128" fill="none"/>
  <g class="idle" stroke="#070310" stroke-width="0">
    <rect x="30.5" y="29" width="67" height="89" rx="6" fill="#d95dff" class="glow" opacity="0.07"/>
    <polygon class="wing wl" points="48.5,55.62 12.5,49.62 18.5,96.92 50.5,80.4" fill="#241548"/>
    <polygon class="wing wl" points="46.5,58.62 17.5,57.62 21.5,84.53 48.5,76.27" fill="#6f54f0" opacity="0.85"/>
    <polygon class="wing wr" points="79.5,55.62 115.5,49.62 109.5,96.92 77.5,80.4" fill="#241548"/>
    <polygon class="wing wr" points="81.5,58.62 110.5,57.62 106.5,84.53 79.5,76.27" fill="#6f54f0" opacity="0.85"/>
    <polygon class="tail" points="46.5,96 30.5,84 34.5,100 28.5,106" fill="#241548"/>
    <rect x="33.5" y="86" width="5" height="5" fill="#d95dff" class="glow"/>
    <rect x="42.5" y="114" width="43" height="6" rx="3" fill="#000000" opacity="0.24"/>
    <polygon points="48.5,45 79.5,45 83.5,49 83.5,100 79.5,104 48.5,104 44.5,100 44.5,49" fill="#241548"/>
    <polygon points="50.5,48 77.5,48 80.5,51 80.5,98 77.5,101 50.5,101 47.5,98 47.5,51" fill="#6f54f0"/>
    <rect x="53.44" y="51" width="14.85" height="11.66" rx="2" fill="#c79bff" opacity="0.7"/>
    <rect x="47.5" y="105" width="9" height="8" rx="2" fill="#241548"/>
    <rect x="71.5" y="105" width="9" height="8" rx="2" fill="#241548"/>
    <rect x="49.5" y="108" width="3" height="3" fill="#d95dff" class="glow"/>
    <rect x="75.5" y="108" width="3" height="3" fill="#d95dff" class="glow"/>
    <rect x="39.5" y="68.6" width="7" height="23.6" rx="2" fill="#241548"/>
    <rect x="81.5" y="68.6" width="7" height="23.6" rx="2" fill="#241548"/>
    <polygon points="39.5,92.2 37.5,98.2 46.5,92.2" fill="#f0d8ff"/>
    <polygon points="88.5,92.2 90.5,98.2 81.5,92.2" fill="#f0d8ff"/>
    <polygon points="47.5,58 39.5,44 53.5,54" fill="#241548"/>
    <polygon points="80.5,58 88.5,44 74.5,54" fill="#241548"/>
    <rect x="40.5" y="44" width="3" height="3" fill="#d95dff" class="glow"/>
    <rect x="84.5" y="44" width="3" height="3" fill="#d95dff" class="glow"/>
    <polygon points="52,54 56,44 60,54 64,42 68,54 72,44 76,54" fill="#f0d8ff" class="glow" opacity="0.9"/>
    <g class="eyes"><rect x="52.42" y="61" width="7" height="8" rx="1" fill="#070310"/><rect x="68.58" y="61" width="7" height="8" rx="1" fill="#070310"/><rect x="54.42" y="63" width="3" height="4" fill="#d95dff" class="glow"/><rect x="70.58" y="63" width="3" height="4" fill="#d95dff" class="glow"/></g>
    <polygon points="59,72 69,72 67,76 61,76" fill="#070310" opacity="0.85"/>
    <rect x="60" y="72" width="2" height="3" fill="#f0d8ff"/>
    <rect x="66" y="72" width="2" height="3" fill="#f0d8ff"/>
    <rect x="62.5" y="74.5" width="4" height="8" rx="1" fill="#d95dff" class="glow" opacity="0.8"/>
    <rect class="scan" x="46.5" y="45" width="35" height="3" fill="#f0d8ff" opacity="0.2"/>
  </g>
</svg>
