<?xml version="1.0" encoding="UTF-8"?>
<svg xmlns="http://www.w3.org/2000/svg" viewBox="0 0 128 128" width="128" height="128" shape-rendering="crispEdges" role="img" aria-labelledby="title desc" data-creature-id="N065" data-stage="Champion" data-type="Machine">
  <title id="title">N065 Gearbastion sprite</title>
  <desc id="desc">Original Champion Machine pixel creature for Pixel Evolution Arena. Walking turret tortoise; slow machine anchor, high defense.</desc>
  <style><![CDATA[
    * { shape-rendering: crispEdges; }
    .idle { transform-box: fill-box; transform-origin: center bottom; animation: bob 2.4s steps(2, end) infinite; }
    .eyes { transform-box: fill-box; transform-origin: center; animation: blink 5.2s steps(1, end) infinite; }
    .glow { animation: glow 2.2s steps(2, end) infinite; }
    .scan { animation: scan 3.82s linear infinite; }
    @keyframes bob { 0%, 100% { transform: translateY(0); } 50% { transform: translateY(-3px); } }
    @keyframes blink { 0%, 44%, 52%, 100% { transform: scaleY(1); } 48% { transform: scaleY(0.12); } }
    @keyframes glow { 0%, 100% { opacity: 0.45; } 50% { opacity: 0.88; } }
    @keyframes scan { 0% { transform: translateY(-4px); opacity: 0.15; } 50% { opacity: 0.5; } 100% { transform: translateY(7px); opacity: 0.15; } }
    @media (prefers-reduced-motion: reduce) { .idle, .eyes, .glow, .scan { animation: none; } }
  ]]></style>
  <rect width="128" height="128" fill="none"/>
  <g class="idle" stroke="#0e1724" stroke-width="0" stroke-linejoin="miter">
    <rect x="26" y="30" width="76" height="70" fill="#61f4ff" class="glow" opacity="0.06"/>
    <rect x="32" y="110" width="64" height="6" fill="#000000" opacity="0.22"/>
    <rect x="60" y="21" width="8" height="16" fill="#334156"/>
    <rect x="56" y="17" width="16" height="6" fill="#61f4ff" class="glow"/>
    <rect x="42" y="72" width="8" height="8" fill="#0e1724"/>
    <rect x="44" y="74" width="4" height="4" fill="#61f4ff" class="glow"/>
    <rect x="78" y="72" width="8" height="8" fill="#0e1724"/>
    <rect x="80" y="74" width="4" height="4" fill="#61f4ff" class="glow"/>
    <rect x="40" y="92" width="48" height="4" fill="#61f4ff" class="glow" opacity="0.65"/>
    <rect x="42" y="100" width="12" height="8" fill="#334156"/>
    <rect x="74" y="100" width="12" height="8" fill="#334156"/>
    <rect x="38" y="102" width="4" height="4" fill="#61f4ff"/>
    <rect x="86" y="102" width="4" height="4" fill="#61f4ff"/>
    <polygon points="90,80 114,70 108,86" fill="#334156"/>
    <rect x="102" y="74" width="6" height="6" fill="#61f4ff"/>
    <polygon points="42,56 86,56 96,66 96,94 86,104 42,104 32,94 32,66" fill="#334156"/>
    <polygon points="44,60 84,60 92,68 92,92 84,100 44,100 36,92 36,68" fill="#9aa8bd"/>
    <rect x="40" y="64" width="22" height="6" fill="#e6f8ff" opacity="0.75"/>
    <rect x="52" y="78" width="4" height="12" fill="#61f4ff" class="glow" opacity="0.72"/>
    <rect x="62" y="84" width="4" height="12" fill="#61f4ff" class="glow" opacity="0.72"/>
    <rect x="72" y="78" width="4" height="12" fill="#61f4ff" class="glow" opacity="0.72"/>
    <polygon points="49,35 79,35 87,43 87,61 79,69 49,69 41,61 41,43" fill="#334156"/>
    <polygon points="51,39 77,39 83,45 83,59 77,65 51,65 45,59 45,45" fill="#9aa8bd"/>
    <rect x="49" y="41" width="14" height="5" fill="#e6f8ff" opacity="0.7"/>
    <g class="eyes">
    <rect x="47" y="50" width="6" height="8" fill="#0e1724"/>
    <rect x="75" y="50" width="6" height="8" fill="#0e1724"/>
    <rect x="48" y="51" width="2" height="2" fill="#61f4ff"/>
    <rect x="76" y="51" width="2" height="2" fill="#61f4ff"/>
    </g>
    <polygon points="46,33 54,19 64,31 74,19 82,33" fill="#61f4ff" class="glow"/>
    <rect x="44" y="66" width="8" height="8" fill="#0e1724"/>
    <rect x="76" y="66" width="8" height="8" fill="#0e1724"/>
    <rect x="46" y="68" width="4" height="4" fill="#61f4ff" class="glow"/>
    <rect x="78" y="68" width="4" height="4" fill="#61f4ff" class="glow"/>
  </g>
</svg>
