<?xml version="1.0" encoding="UTF-8"?>
<svg xmlns="http://www.w3.org/2000/svg" viewBox="0 0 128 128" width="128" height="128" shape-rendering="crispEdges" role="img" aria-labelledby="title desc" data-creature-id="N092" data-stage="Special" data-type="Fire">
  <title id="title">N092 Novafurnace sprite</title>
  <desc id="desc">Original Special Fire pixel creature for Pixel Evolution Arena. Star furnace beast with vent wings; fire burst showcase.</desc>
  <style><![CDATA[
    * { shape-rendering: crispEdges; }
    .idle { transform-box: fill-box; transform-origin: center bottom; animation: bob 2.25s steps(2, end) infinite; }
    .eyes { transform-box: fill-box; transform-origin: center; animation: blink 4.45s steps(1, end) infinite; }
    .glow { animation: glow 2.8s steps(2, end) infinite; }
    .scan { animation: scan 3.28s linear infinite; }
    @keyframes bob { 0%, 100% { transform: translateY(0); } 50% { transform: translateY(-3px); } }
    @keyframes blink { 0%, 44%, 52%, 100% { transform: scaleY(1); } 48% { transform: scaleY(0.12); } }
    @keyframes glow { 0%, 100% { opacity: 0.45; } 50% { opacity: 0.88; } }
    @keyframes scan { 0% { transform: translateY(-4px); opacity: 0.15; } 50% { opacity: 0.5; } 100% { transform: translateY(7px); opacity: 0.15; } }
    @media (prefers-reduced-motion: reduce) { .idle, .eyes, .glow, .scan { animation: none; } }
  ]]></style>
  <rect width="128" height="128" fill="none"/>
  <g class="idle" stroke="#260704" stroke-width="0" stroke-linejoin="miter">
    <rect x="18" y="22" width="92" height="84" fill="#ffd05a" class="glow" opacity="0.08"/>
    <rect x="22" y="18" width="84" height="92" fill="#fff0bd" class="glow" opacity="0.06"/>
    <rect x="32" y="116" width="64" height="6" fill="#000000" opacity="0.22"/>
    <polygon points="64,15 54,39 66,35" fill="#ffd05a" class="glow"/>
    <polygon points="72,23 66,43 82,39" fill="#ff7134" class="glow"/>
    <polygon points="54,27 44,45 60,39" fill="#fff0bd" opacity="0.85"/>
    <rect x="13" y="76" width="8" height="10" fill="#ffd05a" class="glow"/>
    <rect x="107" y="76" width="8" height="10" fill="#ffd05a" class="glow"/>
    <rect x="31" y="102" width="16" height="4" fill="#fff0bd"/>
    <rect x="36" y="106" width="12" height="8" fill="#7b1d12"/>
    <rect x="80" y="106" width="12" height="8" fill="#7b1d12"/>
    <rect x="32" y="108" width="4" height="4" fill="#ffd05a"/>
    <rect x="92" y="108" width="4" height="4" fill="#ffd05a"/>
    <polygon points="31,54 97,54 107,64 107,100 97,110 31,110 21,100 21,64" fill="#7b1d12"/>
    <polygon points="33,58 95,58 103,66 103,98 95,106 33,106 25,98 25,66" fill="#ff7134"/>
    <rect x="29" y="62" width="29" height="6" fill="#fff0bd" opacity="0.75"/>
    <rect x="62" y="79" width="5" height="12" fill="#ffd05a" class="glow" opacity="0.72"/>
    <polygon points="44,27 88,27 96,35 96,63 88,71 44,71 36,63 36,35" fill="#7b1d12"/>
    <polygon points="46,31 86,31 92,37 92,61 86,67 46,67 40,61 40,37" fill="#ff7134"/>
    <rect x="44" y="33" width="18" height="5" fill="#fff0bd" opacity="0.7"/>
    <g class="eyes">
    <rect x="44" y="47" width="6" height="8" fill="#260704"/>
    <rect x="78" y="47" width="6" height="8" fill="#260704"/>
    <rect x="45" y="48" width="2" height="2" fill="#ffd05a"/>
    <rect x="79" y="48" width="2" height="2" fill="#ffd05a"/>
    </g>
    <polygon points="17,72 -7,56 3,96" fill="#7b1d12" opacity="0.92"/>
    <polygon points="111,72 135,56 125,96" fill="#7b1d12" opacity="0.92"/>
    <rect x="33" y="64" width="8" height="8" fill="#260704"/>
    <rect x="87" y="64" width="8" height="8" fill="#260704"/>
    <rect x="35" y="66" width="4" height="4" fill="#ffd05a" class="glow"/>
    <rect x="89" y="66" width="4" height="4" fill="#ffd05a" class="glow"/>
    <rect x="46" y="104" width="8" height="4" fill="#fff0bd"/>
    <rect x="74" y="104" width="8" height="4" fill="#fff0bd"/>
    <rect x="28" y="33" width="72" height="4" fill="#ffd05a" class="scan" opacity="0.38"/>
    <rect x="22" y="108" width="84" height="4" fill="#ffd05a" class="glow" opacity="0.36"/>
    <rect x="30" y="114" width="58" height="3" fill="#fff0bd" class="scan" opacity="0.32"/>
  </g>
</svg>
